<?xml version="1.0" standalone="no"?>
<!DOCTYPE svg PUBLIC "-//W3C//DTD SVG 20010904//EN"
 "http://www.w3.org/TR/2001/REC-SVG-20010904/DTD/svg10.dtd">
<svg version="1.0" xmlns="http://www.w3.org/2000/svg"
 width="302.000000pt" height="302.000000pt" viewBox="0 0 302.000000 302.000000"
 preserveAspectRatio="xMidYMid meet">
<metadata>
Created by potrace 1.11, written by Peter Selinger 2001-2013
</metadata>
<g transform="translate(0.000000,302.000000) scale(0.100000,-0.100000)"
fill="#000000" stroke="none">
<path d="M590 3004 c-109 -23 -237 -80 -301 -134 -152 -129 -232 -258 -274
-440 -22 -96 -22 -1742 0 -1840 62 -274 264 -492 518 -561 23 -6 51 -14 62
-17 11 -3 409 -8 885 -9 765 -3 874 -2 945 12 301 61 527 291 584 595 11 59
10 1779 -1 1815 -3 11 -11 40 -18 64 -68 253 -291 458 -560 515 -96 21 -1745
21 -1840 0z"/>
</g>
</svg>
